<?xml version="1.0" encoding="utf-8"?>
<!-- Generator: Adobe Illustrator 22.0.0, SVG Export Plug-In . SVG Version: 6.00 Build 0)  -->
<svg version="1.1" xmlns="http://www.w3.org/2000/svg" xmlns:xlink="http://www.w3.org/1999/xlink" x="0px" y="0px"
	 viewBox="0 0 3710 3710" style="enable-background:new 0 0 3710 3710;" xml:space="preserve">
<style type="text/css">
	.st0{fill:#FFFFFF;}
	.st1{fill:url(#SVGID_1_);}
	.st2{fill:#BDD0FB;}
	.st3{opacity:0.52;}
	.st4{fill:url(#SVGID_2_);}
	.st5{fill:url(#SVGID_3_);}
	.st6{fill:url(#SVGID_4_);}
	.st7{fill:url(#SVGID_5_);}
	.st8{fill:url(#SVGID_6_);}
	.st9{fill:url(#SVGID_7_);}
	.st10{fill:url(#SVGID_8_);}
	.st11{fill:url(#SVGID_9_);}
	.st12{fill:url(#SVGID_10_);}
	.st13{fill:url(#SVGID_11_);}
	.st14{fill:url(#SVGID_12_);}
	.st15{fill:url(#SVGID_13_);}
	.st16{fill:url(#SVGID_14_);}
	.st17{fill:url(#SVGID_15_);}
	.st18{fill:url(#SVGID_16_);}
	.st19{fill:url(#SVGID_17_);}
	.st20{fill:url(#SVGID_18_);}
	.st21{fill:url(#SVGID_19_);}
	.st22{fill:url(#SVGID_20_);}
	.st23{fill:url(#SVGID_21_);}
	.st24{fill:url(#SVGID_22_);}
	.st25{fill:url(#SVGID_23_);}
	.st26{fill:url(#SVGID_24_);}
	.st27{fill:url(#SVGID_25_);}
	.st28{fill:url(#SVGID_26_);}
	.st29{fill:url(#SVGID_27_);}
	.st30{fill:url(#SVGID_28_);}
	.st31{opacity:0.5;}
	.st32{fill:#91B3FA;}
	.st33{opacity:0.57;fill:#FFFFFF;}
	.st34{fill:#7D97F4;}
	.st35{fill:url(#SVGID_29_);}
	.st36{fill:url(#SVGID_30_);}
	.st37{fill:url(#SVGID_31_);}
	.st38{fill:url(#SVGID_32_);}
	.st39{fill:url(#SVGID_33_);}
	.st40{fill:url(#SVGID_34_);}
	.st41{fill:url(#SVGID_35_);}
	.st42{fill:url(#SVGID_36_);}
	.st43{fill:url(#SVGID_37_);}
	.st44{fill:url(#SVGID_38_);}
	.st45{fill:url(#SVGID_39_);}
	.st46{fill:url(#SVGID_40_);}
	.st47{fill:url(#SVGID_41_);}
	.st48{fill:url(#SVGID_42_);}
	.st49{fill:url(#SVGID_43_);}
	.st50{fill:url(#SVGID_44_);}
	.st51{fill:url(#SVGID_45_);}
	.st52{fill:url(#SVGID_46_);}
	.st53{fill:url(#SVGID_47_);}
	.st54{fill:url(#SVGID_48_);}
	.st55{fill:url(#SVGID_49_);}
	.st56{fill:url(#SVGID_50_);}
	.st57{fill:url(#SVGID_51_);}
	.st58{fill:url(#SVGID_52_);}
	.st59{fill:url(#SVGID_53_);}
	.st60{fill:url(#SVGID_54_);}
	.st61{fill:url(#SVGID_55_);}
	.st62{fill:url(#SVGID_56_);}
	.st63{opacity:0.3;}
</style>
<g id="Background">
	<g>
		<g>
			<rect class="st0" width="3710" height="3710"/>
		</g>
	</g>
</g>
<g id="Illustration">
	<g>
		<linearGradient id="SVGID_1_" gradientUnits="userSpaceOnUse" x1="3573.9189" y1="4029.532" x2="1127.3884" y2="991.0947">
			<stop  offset="0" style="stop-color:#DAE3FE"/>
			<stop  offset="1" style="stop-color:#E9EFFD"/>
		</linearGradient>
		<path class="st1" d="M2910.7,2824.5c-56.7,58.8-110.4,96.7-152.8,126.7c-498.6,352.1-1088.5,249.5-1213.8,224.4
			c-185.1-37-543-108.6-801.7-408c-391.4-453.1-330.5-1166.9-26.9-1638.1c55.5-86.2,348.9-564.6,945.2-641.3
			c360.9-46.4,781.5,47.2,1086.1,298.4C3386.1,1313.7,3340.6,2379,2910.7,2824.5z"/>
		<g>
			<g>
				<path class="st2" d="M996.7,1243.8c0.3-13.3,11.5-24,25.2-24h832.3c13.9,0,28.7,11.1,28.7,24.6v1886.3
					c0,10.1-5.9,19.7-13.2,26.9c-7.4,7.1-18.2,11.1-28.6,11.1l-841.4-2.2c-10.5,0-20.7-4.1-28-11.4c-7.3-7.3-11.4-17.1-11.3-27.3
					L996.7,1243.8z"/>
				<g class="st3">
					<polygon class="st0" points="1474.6,1353.4 1746.9,1352.5 1746.8,1319.4 1474.8,1320.2 					"/>
					<polygon class="st0" points="1473.9,1475.3 1747.2,1474 1747.1,1440.7 1474.1,1441.8 					"/>
					<polygon class="st0" points="1473.1,1598.1 1747.6,1596.6 1747.5,1563 1473.3,1564.4 					"/>
					<polygon class="st0" points="1472.4,1722 1748,1720.2 1747.9,1686.3 1472.6,1688 					"/>
					<polygon class="st0" points="1471.6,1846.9 1748.4,1844.8 1748.3,1810.6 1471.8,1812.6 					"/>
					<polygon class="st0" points="1470,2099.9 1749.1,2097.1 1749,2062.3 1470.2,2065 					"/>
					<polygon class="st0" points="1467.7,2487.4 1750.3,2483.6 1750.2,2448 1467.9,2451.7 					"/>
					<polygon class="st0" points="1470.8,1972.9 1748.8,1970.4 1748.6,1935.9 1471,1938.3 					"/>
					<polygon class="st0" points="1469.3,2228 1749.5,2224.9 1749.4,2189.8 1469.5,2192.8 					"/>
					<polygon class="st0" points="1468.5,2357.1 1749.9,2353.7 1749.8,2318.3 1468.7,2321.7 					"/>
					<polygon class="st0" points="1466.9,2618.8 1750.7,2614.7 1750.6,2578.7 1467.1,2582.7 					"/>
					<polygon class="st0" points="1466,2751.3 1751.1,2746.8 1751,2710.6 1466.3,2714.9 					"/>
					<polygon class="st0" points="1465.2,2885 1751.5,2880.1 1751.4,2843.6 1465.5,2848.3 					"/>
					<polygon class="st0" points="1464.4,3019.8 1752,3014.6 1751.8,2977.7 1464.6,2982.8 					"/>
					<polygon class="st0" points="1117.7,1354.6 1391.6,1353.7 1391.9,1320.5 1118.3,1321.3 					"/>
					<polygon class="st0" points="1115.4,1476.8 1390.5,1475.6 1390.8,1442.2 1116.1,1443.3 					"/>
					<polygon class="st0" points="1113.2,1600.1 1389.4,1598.6 1389.7,1564.8 1113.8,1566.3 					"/>
					<polygon class="st0" points="1110.9,1724.4 1388.3,1722.5 1388.6,1688.5 1111.6,1690.3 					"/>
					<polygon class="st0" points="1108.7,1849.7 1387.2,1847.6 1387.5,1813.2 1109.3,1815.3 					"/>
					<polygon class="st0" points="1104.1,2103.5 1385,2100.7 1385.3,2065.8 1104.7,2068.5 					"/>
					<polygon class="st0" points="1097,2492.3 1381.5,2488.6 1381.8,2452.8 1097.6,2456.5 					"/>
					<polygon class="st0" points="1106.4,1976.1 1386.1,1973.6 1386.4,1939 1107,1941.4 					"/>
					<polygon class="st0" points="1101.7,2232 1383.8,2228.9 1384.1,2193.7 1102.4,2196.8 					"/>
					<polygon class="st0" points="1099.4,2361.6 1382.7,2358.2 1383,2322.7 1100,2326.1 					"/>
					<polygon class="st0" points="1094.6,2624.2 1380.3,2620 1380.6,2584 1095.2,2588 					"/>
					<polygon class="st0" points="1092.2,2757.1 1379.1,2752.7 1379.5,2716.3 1092.8,2720.7 					"/>
					<polygon class="st0" points="1089.7,2891.3 1377.9,2886.4 1378.3,2849.7 1090.4,2854.5 					"/>
					<polygon class="st0" points="1087.3,3026.6 1376.7,3021.3 1377.1,2984.3 1087.9,2989.4 					"/>
				</g>
			</g>
			<g>
				<path class="st2" d="M519.1,1764.1c0.4-15.4,16.2-28.1,35.6-28.1h733c19.7,0,39,13.3,39,29v1395.9c0,7.5-5.4,14.7-12.1,20
					c-6.7,5.3-16.6,8.3-26.1,8.3l-766.4-1.7c-9.5,0-18.9-3.1-25.5-8.5c-6.7-5.4-10.4-12.9-10.3-20.5L519.1,1764.1z"/>
				<g>
					<g>
						<linearGradient id="SVGID_2_" gradientUnits="userSpaceOnUse" x1="1058.8914" y1="1857.8364" x2="1269.3678" y2="1857.8364">
							<stop  offset="0" style="stop-color:#DAE3FE"/>
							<stop  offset="1" style="stop-color:#E9EFFD"/>
						</linearGradient>
						<polygon class="st4" points="1058.9,1900.5 1267.7,1900.3 1269.4,1815.2 1060.3,1815.2 						"/>
						<linearGradient id="SVGID_3_" gradientUnits="userSpaceOnUse" x1="824.8279" y1="1857.8152" x2="1034.8676" y2="1857.8152">
							<stop  offset="0" style="stop-color:#DAE3FE"/>
							<stop  offset="1" style="stop-color:#E9EFFD"/>
						</linearGradient>
						<polygon class="st5" points="824.8,1900.4 1033.4,1900.2 1034.9,1815.2 826.1,1815.2 						"/>
						<linearGradient id="SVGID_4_" gradientUnits="userSpaceOnUse" x1="591" y1="1857.7938" x2="800.6026" y2="1857.7938">
							<stop  offset="0" style="stop-color:#DAE3FE"/>
							<stop  offset="1" style="stop-color:#E9EFFD"/>
						</linearGradient>
						<polygon class="st6" points="591,1900.4 799.4,1900.2 800.6,1815.2 592,1815.2 						"/>
					</g>
					<g>
						<linearGradient id="SVGID_5_" gradientUnits="userSpaceOnUse" x1="1056.2817" y1="2010.9712" x2="1266.3884" y2="2010.9712">
							<stop  offset="0" style="stop-color:#DAE3FE"/>
							<stop  offset="1" style="stop-color:#E9EFFD"/>
						</linearGradient>
						<polygon class="st7" points="1056.3,2053.2 1264.7,2053.3 1266.4,1968.8 1057.7,1968.7 						"/>
						<linearGradient id="SVGID_6_" gradientUnits="userSpaceOnUse" x1="822.6263" y1="2010.8732" x2="1032.2979" y2="2010.8732">
							<stop  offset="0" style="stop-color:#DAE3FE"/>
							<stop  offset="1" style="stop-color:#E9EFFD"/>
						</linearGradient>
						<polygon class="st8" points="822.6,2053 1030.9,2053.1 1032.3,1968.7 823.8,1968.6 						"/>
						<linearGradient id="SVGID_7_" gradientUnits="userSpaceOnUse" x1="589.2053" y1="2010.7756" x2="798.4407" y2="2010.7756">
							<stop  offset="0" style="stop-color:#DAE3FE"/>
							<stop  offset="1" style="stop-color:#E9EFFD"/>
						</linearGradient>
						<polygon class="st9" points="589.2,2052.9 797.2,2053 798.4,1968.6 590.2,1968.5 						"/>
					</g>
					<g>
						<linearGradient id="SVGID_8_" gradientUnits="userSpaceOnUse" x1="1053.6813" y1="2162.7764" x2="1263.4193" y2="2162.7764">
							<stop  offset="0" style="stop-color:#DAE3FE"/>
							<stop  offset="1" style="stop-color:#E9EFFD"/>
						</linearGradient>
						<polygon class="st10" points="1053.7,2204.8 1261.8,2204.9 1263.4,2120.7 1055.1,2120.6 						"/>
						<linearGradient id="SVGID_9_" gradientUnits="userSpaceOnUse" x1="820.432" y1="2162.6023" x2="1029.736" y2="2162.6023">
							<stop  offset="0" style="stop-color:#DAE3FE"/>
							<stop  offset="1" style="stop-color:#E9EFFD"/>
						</linearGradient>
						<polygon class="st11" points="820.4,2204.6 1028.3,2204.8 1029.7,2120.6 821.7,2120.5 						"/>
						<linearGradient id="SVGID_10_" gradientUnits="userSpaceOnUse" x1="587.4167" y1="2162.429" x2="796.2862" y2="2162.429">
							<stop  offset="0" style="stop-color:#DAE3FE"/>
							<stop  offset="1" style="stop-color:#E9EFFD"/>
						</linearGradient>
						<polygon class="st12" points="587.4,2204.4 795.1,2204.6 796.3,2120.4 588.4,2120.3 						"/>
					</g>
					<g>
						<linearGradient id="SVGID_11_" gradientUnits="userSpaceOnUse" x1="1051.0896" y1="2314.0552" x2="1260.4606" y2="2314.0552">
							<stop  offset="0" style="stop-color:#DAE3FE"/>
							<stop  offset="1" style="stop-color:#E9EFFD"/>
						</linearGradient>
						<polygon class="st13" points="1051.1,2355.9 1258.8,2356.1 1260.5,2272.2 1052.5,2272 						"/>
						<linearGradient id="SVGID_12_" gradientUnits="userSpaceOnUse" x1="818.2451" y1="2313.8059" x2="1027.1837" y2="2313.8059">
							<stop  offset="0" style="stop-color:#DAE3FE"/>
							<stop  offset="1" style="stop-color:#E9EFFD"/>
						</linearGradient>
						<polygon class="st14" points="818.2,2355.6 1025.8,2355.8 1027.2,2272 819.5,2271.8 						"/>
						<linearGradient id="SVGID_13_" gradientUnits="userSpaceOnUse" x1="585.6337" y1="2313.5574" x2="794.1396" y2="2313.5574">
							<stop  offset="0" style="stop-color:#DAE3FE"/>
							<stop  offset="1" style="stop-color:#E9EFFD"/>
						</linearGradient>
						<polygon class="st15" points="585.6,2355.3 793,2355.6 794.1,2271.7 586.6,2271.5 						"/>
					</g>
					<g>
						<linearGradient id="SVGID_14_" gradientUnits="userSpaceOnUse" x1="1048.5074" y1="2464.8113" x2="1257.5118" y2="2464.8113">
							<stop  offset="0" style="stop-color:#DAE3FE"/>
							<stop  offset="1" style="stop-color:#E9EFFD"/>
						</linearGradient>
						<polygon class="st16" points="1048.5,2506.5 1255.9,2506.8 1257.5,2423.1 1049.9,2422.9 						"/>
						<linearGradient id="SVGID_15_" gradientUnits="userSpaceOnUse" x1="816.0661" y1="2464.4871" x2="1024.6396" y2="2464.4871">
							<stop  offset="0" style="stop-color:#DAE3FE"/>
							<stop  offset="1" style="stop-color:#E9EFFD"/>
						</linearGradient>
						<polygon class="st17" points="816.1,2506.1 1023.2,2506.4 1024.6,2422.8 817.3,2422.6 						"/>
						<linearGradient id="SVGID_16_" gradientUnits="userSpaceOnUse" x1="583.8569" y1="2464.1636" x2="792" y2="2464.1636">
							<stop  offset="0" style="stop-color:#DAE3FE"/>
							<stop  offset="1" style="stop-color:#E9EFFD"/>
						</linearGradient>
						<polygon class="st18" points="583.9,2505.8 790.8,2506.1 792,2422.5 584.8,2422.3 						"/>
					</g>
					<g>
						<linearGradient id="SVGID_17_" gradientUnits="userSpaceOnUse" x1="1045.9338" y1="2615.0466" x2="1254.5739" y2="2615.0466">
							<stop  offset="0" style="stop-color:#DAE3FE"/>
							<stop  offset="1" style="stop-color:#E9EFFD"/>
						</linearGradient>
						<polygon class="st19" points="1045.9,2656.5 1252.9,2656.9 1254.6,2573.5 1047.4,2573.2 						"/>
						<linearGradient id="SVGID_18_" gradientUnits="userSpaceOnUse" x1="813.8941" y1="2614.6479" x2="1022.1053" y2="2614.6479">
							<stop  offset="0" style="stop-color:#DAE3FE"/>
							<stop  offset="1" style="stop-color:#E9EFFD"/>
						</linearGradient>
						<polygon class="st20" points="813.9,2656.1 1020.7,2656.5 1022.1,2573.2 815.1,2572.8 						"/>
						<linearGradient id="SVGID_19_" gradientUnits="userSpaceOnUse" x1="582.0867" y1="2614.2505" x2="789.8682" y2="2614.2505">
							<stop  offset="0" style="stop-color:#DAE3FE"/>
							<stop  offset="1" style="stop-color:#E9EFFD"/>
						</linearGradient>
						<polygon class="st21" points="582.1,2655.7 788.7,2656 789.9,2572.8 583.1,2572.5 						"/>
					</g>
					<g>
						<linearGradient id="SVGID_20_" gradientUnits="userSpaceOnUse" x1="1043.3684" y1="2764.7644" x2="1251.6458" y2="2764.7644">
							<stop  offset="0" style="stop-color:#DAE3FE"/>
							<stop  offset="1" style="stop-color:#E9EFFD"/>
						</linearGradient>
						<polygon class="st22" points="1043.4,2806.1 1250,2806.5 1251.6,2723.4 1044.8,2723 						"/>
						<linearGradient id="SVGID_21_" gradientUnits="userSpaceOnUse" x1="811.7304" y1="2764.292" x2="1019.5788" y2="2764.292">
							<stop  offset="0" style="stop-color:#DAE3FE"/>
							<stop  offset="1" style="stop-color:#E9EFFD"/>
						</linearGradient>
						<polygon class="st23" points="811.7,2805.6 1018.2,2806 1019.6,2723 812.9,2722.6 						"/>
						<linearGradient id="SVGID_22_" gradientUnits="userSpaceOnUse" x1="580.3221" y1="2763.8201" x2="787.7435" y2="2763.8201">
							<stop  offset="0" style="stop-color:#DAE3FE"/>
							<stop  offset="1" style="stop-color:#E9EFFD"/>
						</linearGradient>
						<polygon class="st24" points="580.3,2805.1 786.6,2805.5 787.7,2722.5 581.3,2722.1 						"/>
					</g>
					<g>
						<linearGradient id="SVGID_23_" gradientUnits="userSpaceOnUse" x1="1040.8126" y1="2913.967" x2="1248.7279" y2="2913.967">
							<stop  offset="0" style="stop-color:#DAE3FE"/>
							<stop  offset="1" style="stop-color:#E9EFFD"/>
						</linearGradient>
						<polygon class="st25" points="1040.8,2955.1 1247.1,2955.6 1248.7,2872.8 1042.2,2872.3 						"/>
						<linearGradient id="SVGID_24_" gradientUnits="userSpaceOnUse" x1="809.5737" y1="2913.4211" x2="1017.062" y2="2913.4211">
							<stop  offset="0" style="stop-color:#DAE3FE"/>
							<stop  offset="1" style="stop-color:#E9EFFD"/>
						</linearGradient>
						<polygon class="st26" points="809.6,2954.5 1015.7,2955 1017.1,2872.3 810.8,2871.8 						"/>
						<linearGradient id="SVGID_25_" gradientUnits="userSpaceOnUse" x1="578.5637" y1="2912.8762" x2="785.6253" y2="2912.8762">
							<stop  offset="0" style="stop-color:#DAE3FE"/>
							<stop  offset="1" style="stop-color:#E9EFFD"/>
						</linearGradient>
						<polygon class="st27" points="578.6,2953.9 784.5,2954.5 785.6,2871.8 579.5,2871.3 						"/>
					</g>
					<g>
						<linearGradient id="SVGID_26_" gradientUnits="userSpaceOnUse" x1="1038.2651" y1="3062.6575" x2="1245.8195" y2="3062.6575">
							<stop  offset="0" style="stop-color:#DAE3FE"/>
							<stop  offset="1" style="stop-color:#E9EFFD"/>
						</linearGradient>
						<polygon class="st28" points="1038.3,3103.6 1244.2,3104.2 1245.8,3021.7 1039.7,3021.1 						"/>
						<linearGradient id="SVGID_27_" gradientUnits="userSpaceOnUse" x1="807.4241" y1="3062.0386" x2="1014.5535" y2="3062.0386">
							<stop  offset="0" style="stop-color:#DAE3FE"/>
							<stop  offset="1" style="stop-color:#E9EFFD"/>
						</linearGradient>
						<polygon class="st29" points="807.4,3103 1013.2,3103.5 1014.6,3021.1 808.6,3020.6 						"/>
						<linearGradient id="SVGID_28_" gradientUnits="userSpaceOnUse" x1="576.8118" y1="3061.4207" x2="783.5159" y2="3061.4207">
							<stop  offset="0" style="stop-color:#DAE3FE"/>
							<stop  offset="1" style="stop-color:#E9EFFD"/>
						</linearGradient>
						<polygon class="st30" points="576.8,3102.3 782.3,3102.9 783.5,3020.5 577.8,3020 						"/>
					</g>
				</g>
			</g>
			<g>
				<path class="st2" d="M2432.4,1797.4c0.4-15.4,16.2-28.1,35.6-28.1h733c19.7,0,39,13.3,39,29v1395.9c0,7.5-5.4,14.7-12.1,20
					c-6.7,5.3-16.6,8.3-26.1,8.3l-766.4-1.7c-9.5,0-18.9-3.1-25.5-8.5s-10.4-12.9-10.3-20.5L2432.4,1797.4z"/>
				<g class="st31">
					<g>
						<polygon class="st0" points="2972.3,1933.8 3181.1,1933.6 3182.8,1848.5 2973.7,1848.5 						"/>
						<polygon class="st0" points="2738.2,1933.8 2946.8,1933.5 2948.3,1848.5 2739.4,1848.5 						"/>
						<polygon class="st0" points="2504.4,1933.7 2712.8,1933.5 2714,1848.5 2505.4,1848.5 						"/>
					</g>
					<g>
						<polygon class="st0" points="2969.7,2086.5 3178.1,2086.6 3179.8,2002.1 2971.1,2002 						"/>
						<polygon class="st0" points="2736,2086.4 2944.3,2086.5 2945.7,2002 2737.2,2001.9 						"/>
						<polygon class="st0" points="2502.6,2086.2 2710.6,2086.4 2711.8,2001.9 2503.6,2001.9 						"/>
					</g>
					<g>
						<polygon class="st0" points="2967.1,2238.1 3175.2,2238.3 3176.8,2154.1 2968.5,2153.9 						"/>
						<polygon class="st0" points="2733.8,2237.9 2941.7,2238.1 2943.1,2153.9 2735,2153.8 						"/>
						<polygon class="st0" points="2500.8,2237.7 2708.5,2237.9 2709.7,2153.8 2501.8,2153.6 						"/>
					</g>
					<g>
						<polygon class="st0" points="2964.5,2389.2 3172.2,2389.4 3173.8,2305.5 2965.9,2305.3 						"/>
						<polygon class="st0" points="2731.6,2388.9 2939.2,2389.2 2940.6,2305.3 2732.8,2305.1 						"/>
						<polygon class="st0" points="2499,2388.7 2706.3,2388.9 2707.5,2305.1 2500,2304.9 						"/>
					</g>
					<g>
						<polygon class="st0" points="2961.9,2539.8 3169.3,2540.1 3170.9,2456.5 2963.3,2456.2 						"/>
						<polygon class="st0" points="2729.5,2539.4 2936.6,2539.7 2938,2456.2 2730.7,2455.9 						"/>
						<polygon class="st0" points="2497.2,2539.1 2704.2,2539.4 2705.4,2455.9 2498.2,2455.6 						"/>
					</g>
					<g>
						<polygon class="st0" points="2959.3,2689.8 3166.3,2690.2 3168,2606.9 2960.7,2606.5 						"/>
						<polygon class="st0" points="2727.3,2689.4 2934.1,2689.8 2935.5,2606.5 2728.5,2606.2 						"/>
						<polygon class="st0" points="2495.5,2689 2702.1,2689.4 2703.3,2606.1 2496.5,2605.8 						"/>
					</g>
					<g>
						<polygon class="st0" points="2956.8,2839.4 3163.4,2839.8 3165,2756.8 2958.2,2756.4 						"/>
						<polygon class="st0" points="2725.1,2838.9 2931.6,2839.3 2933,2756.3 2726.3,2755.9 						"/>
						<polygon class="st0" points="2493.7,2838.4 2700,2838.8 2701.1,2755.9 2494.7,2755.5 						"/>
					</g>
					<g>
						<polygon class="st0" points="2954.2,2988.4 3160.5,2988.9 3162.1,2906.2 2955.6,2905.7 						"/>
						<polygon class="st0" points="2723,2987.8 2929.1,2988.4 2930.4,2905.6 2724.2,2905.2 						"/>
						<polygon class="st0" points="2491.9,2987.3 2697.8,2987.8 2699,2905.1 2492.9,2904.6 						"/>
					</g>
					<g>
						<polygon class="st0" points="2951.6,3136.9 3157.6,3137.5 3159.2,3055 2953.1,3054.5 						"/>
						<polygon class="st0" points="2720.8,3136.3 2926.5,3136.9 2927.9,3054.4 2722,3053.9 						"/>
						<polygon class="st0" points="2490.2,3135.7 2695.7,3136.2 2696.9,3053.8 2491.2,3053.3 						"/>
					</g>
				</g>
			</g>
		</g>
		<g>
			<g>
				<path class="st32" d="M1703.7,2177.1c-59.8-187.8-175.6-337.5-312.7-425.5c-122.6-78.7-210.9-201.2-243.6-342.7
					c-3.4-14.9-7.5-29.8-12.3-44.7c-71.9-225.9-269.3-364.7-440.8-310.1c-171.5,54.6-252.2,282-180.2,507.9
					c14.7,46.2,34.7,88.7,58.6,126.7C649.1,1810,679,1955.4,650.9,2096c-25.1,125.7-18.3,267.2,26.6,408
					c66.9,210,203.7,372.4,362.1,454.1c59.9,30.9,114,72.5,158.7,122.7c74.4,83.5,179.1,122.7,275.4,92.1
					c103.9-33.1,168.7-138.2,173.4-261c2.6-69.4,19-137.5,45.6-201.8C1755.5,2558.2,1764.2,2367,1703.7,2177.1z"/>
				<path class="st33" d="M831.1,1275.3c70,142.2,135.3,286.5,199,431.4c16,36.2,31.3,72.7,46.8,109.2l23.2,54.7l22.8,54.9
					c15,36.6,30.6,73.1,45.2,109.9l43.9,110.4c28.3,74,57.2,147.7,84.2,222.2c13.5,37.2,27.8,74.2,40.5,111.7l38.8,112.3
					c50.2,150.3,96.6,301.9,135.2,455.6l-6.6,1.7l-33.3-113.9l-8.3-28.5l-9-28.3l-18-56.5l-17.9-56.5c-5.9-18.9-12.6-37.5-18.9-56.2
					c-12.8-37.4-25.3-74.9-38.3-112.3c-53.1-149-108.1-297.3-166.2-444.4c-29.6-73.3-58.6-146.9-88.7-220.1l-22.4-54.9l-22.9-54.7
					c-15.3-36.5-30.5-73-46.1-109.3c-30.6-72.9-61.8-145.7-93.5-218.2c-31.4-72.6-63.4-145-95.7-217.2L831.1,1275.3z"/>
			</g>
			<g>
				<path class="st34" d="M2204.2,1803.8c-28-205.1-120.4-380.9-245.8-496.8c-112.2-103.6-181.2-246.3-189.5-398.6
					c-0.9-16-2.4-32.2-4.6-48.5c-33.6-246.7-212-426.1-398.5-400.7c-186.5,25.4-310.4,246-276.7,492.7
					c6.9,50.4,19.8,98.1,37.6,141.7c56.9,139.2,61.6,295,7.4,435.4c-48.4,125.5-66.7,273.1-45.8,426.9
					c31.3,229.4,143.1,422.1,291.7,535.3c56.2,42.8,104.4,95.6,141.5,155.7c61.6,99.8,162.6,159.4,267.2,145.1
					c112.9-15.4,198.6-112.4,225.4-238.5c15.2-71.3,44.2-138.8,83.1-200.5C2189.2,2207.3,2232.5,2011.2,2204.2,1803.8z"/>
				<path class="st33" d="M1466.8,712.8c46.6,159.7,88,320.8,127.7,482.3c9.9,40.4,19.2,80.9,28.7,121.4l14.1,60.8l13.6,60.9
					c8.9,40.6,18.4,81.1,26.9,121.8l25.4,122.2c15.9,81.6,32.5,163.2,46.9,245.1c7.2,41,15.3,81.8,21.7,122.9l19.8,123.2
					c24.8,164.5,45.4,329.8,57.6,495.7l-7.1,0.6l-13.9-123.8l-3.4-31l-4.2-30.9l-8.5-61.7l-8.3-61.7c-2.7-20.6-6.3-41.1-9.3-61.6
					c-6.5-41-12.6-82.1-19.3-123.1c-27.9-163.7-58.1-327.1-91.5-489.8c-17.4-81.2-34-162.6-52-243.7l-13.3-60.9l-13.8-60.8
					c-9.2-40.5-18.3-81-27.9-121.4c-18.5-81-37.5-161.9-57.2-242.6c-19.3-80.8-39.3-161.5-59.6-242L1466.8,712.8z"/>
			</g>
		</g>
		<g>
			<linearGradient id="SVGID_29_" gradientUnits="userSpaceOnUse" x1="2741.292" y1="-790.1846" x2="2137.1833" y2="2733.7744">
				<stop  offset="0" style="stop-color:#4042E2"/>
				<stop  offset="1" style="stop-color:#4F52FF"/>
			</linearGradient>
			<path class="st35" d="M3061.2,3213.7H1433.6c-12.7,0-23-10.3-23-23V991.1c0-12.7,10.3-23,23-23h1627.7c12.7,0,23,10.3,23,23
				v2199.5C3084.3,3203.4,3073.9,3213.7,3061.2,3213.7z"/>
			<path class="st34" d="M2799.3,2917.9H1691.9c-42,0-76-34-76-76V1381.5c0-42,34-76,76-76h1107.4c42,0,76,34,76,76v1460.4
				C2875.3,2883.8,2841.3,2917.9,2799.3,2917.9z"/>
			<linearGradient id="SVGID_30_" gradientUnits="userSpaceOnUse" x1="1711.9962" y1="2121.8967" x2="2780.2222" y2="2121.8967">
				<stop  offset="0" style="stop-color:#4042E2"/>
				<stop  offset="1" style="stop-color:#4F52FF"/>
			</linearGradient>
			<path class="st36" d="M2757.4,2805.7H1734.8c-12.6,0-22.8-10.2-22.8-22.8v-1322c0-12.6,10.2-22.8,22.8-22.8h1022.6
				c12.6,0,22.8,10.2,22.8,22.8v1322C2780.2,2795.5,2770,2805.7,2757.4,2805.7z"/>
			<linearGradient id="SVGID_31_" gradientUnits="userSpaceOnUse" x1="2329.2961" y1="944.2405" x2="2654.2888" y2="194.2579">
				<stop  offset="0" style="stop-color:#09005D"/>
				<stop  offset="1" style="stop-color:#1A0F91"/>
			</linearGradient>
			<circle class="st37" cx="2244.3" cy="1140.3" r="50.1"/>
			<linearGradient id="SVGID_32_" gradientUnits="userSpaceOnUse" x1="2358.8447" y1="1430.0939" x2="1627.453" y2="6499.395">
				<stop  offset="0" style="stop-color:#FEBBBA"/>
				<stop  offset="1" style="stop-color:#FF928E"/>
			</linearGradient>
			<path class="st38" d="M2567.8,1948.6l-644.2,10.7c-49,0.8-88.9,38.9-88.9,85.2v405.7c0,46.2,39.9,82.1,88.9,80.1l644.2-25.9
				c46.3-1.9,83.7-39.6,83.7-84.2v-392.1C2651.5,1983.4,2614.1,1947.8,2567.8,1948.6z"/>
			<linearGradient id="SVGID_33_" gradientUnits="userSpaceOnUse" x1="2339.6602" y1="1427.326" x2="1608.2683" y2="6496.6289">
				<stop  offset="0" style="stop-color:#FEBBBA"/>
				<stop  offset="1" style="stop-color:#FF928E"/>
			</linearGradient>
			<path class="st39" d="M2600.4,1875.2c-19.5,0.3-35.4-14.8-35.4-33.6v-88.8c0-89.1-75.3-161.3-168.6-161.1l-209.9,0.6
				c-95.7,0.3-174.1,74.7-174.1,165.8v90.9c0,19.3-16.6,35.2-37.1,35.5c-20.6,0.3-37.2-15.1-37.2-34.5v-91.1
				c0-130.1,112.1-235.9,248.4-235.9h209.9c132.5,0,239.2,102.8,239.2,229.2v88.5C2635.7,1859.5,2619.9,1874.9,2600.4,1875.2z"/>
			<linearGradient id="SVGID_34_" gradientUnits="userSpaceOnUse" x1="2381.4185" y1="2006.6177" x2="3453.6072" y2="-125.1459">
				<stop  offset="0" style="stop-color:#FE7062"/>
				<stop  offset="1" style="stop-color:#FF928E"/>
			</linearGradient>
			<path class="st40" d="M2350,2173.4c0-45.1-39.4-80.5-87.2-77.2c-42.3,2.9-77.3,36.8-79.6,77.2c-1.8,31.4,15.5,58.5,41.7,72.3
				c11.2,5.8,16.7,18.1,14.5,30.3l-18.4,103.2c-2.3,13.1,8.2,24.7,22.1,24.2l47.3-1.7c13.8-0.5,24.3-12.8,22-25.7l-18.4-102.3
				c-2.2-12.2,4.1-24.3,15.3-31C2333.7,2228.2,2350,2202.4,2350,2173.4z"/>
		</g>
		<g>
			<g>
				
					<linearGradient id="SVGID_35_" gradientUnits="userSpaceOnUse" x1="-1483.0153" y1="3175.3572" x2="-1364.4141" y2="3175.3572" gradientTransform="matrix(1 0 0 1 2420.5969 0)">
					<stop  offset="0" style="stop-color:#09005D"/>
					<stop  offset="1" style="stop-color:#1A0F91"/>
				</linearGradient>
				<path class="st41" d="M1056.2,3217.6c0-0.9,0-1.8-0.3-2.7c-13.4-53-79.7-85.9-79.7-85.9L950,3131
					c-15.1,46.7-13.2,75.3-10.7,88.1c0.1,0.4,0.2,0.7,0.3,1C961.2,3222.1,1005.8,3223.3,1056.2,3217.6z"/>
				<path class="st32" d="M939.5,3220.1c1.2,4.3,4.3,7.6,8.3,8.4c30.8,6.5,79.8,1.3,100.4-1.4c4.5-0.6,7.9-4.8,7.9-9.5
					C1005.8,3223.3,961.2,3222.1,939.5,3220.1z"/>
				
					<linearGradient id="SVGID_36_" gradientUnits="userSpaceOnUse" x1="-1450.0334" y1="3040.3352" x2="-1472.6882" y2="3238.0508" gradientTransform="matrix(1 0 0 1 2420.5969 0)">
					<stop  offset="0" style="stop-color:#FEBBBA"/>
					<stop  offset="1" style="stop-color:#FF928E"/>
				</linearGradient>
				<path class="st42" d="M939.4,3091.9l11.1,53.6c0.8,3.9,3.8,6.9,7.5,7.2c4.5,0.4,10.8,0.7,17.2-0.3c5.7-0.8,9.7-6.7,8.7-12.9
					l-7.7-47.6H939.4z"/>
				<path class="st32" d="M1170,3219.4c-29-0.8-44-4.2-51.8-7.4c0,2.9,0,5.8,0.1,8.9c0.1,3.2,2.5,5.8,5.5,5.8l159.3-1
					c5.1,0,8.1-5.9,5.9-10.6C1268,3216.8,1214.8,3220.7,1170,3219.4z"/>
				
					<linearGradient id="SVGID_37_" gradientUnits="userSpaceOnUse" x1="-1302.4172" y1="3178.3716" x2="-1131.6923" y2="3178.3716" gradientTransform="matrix(1 0 0 1 2420.5969 0)">
					<stop  offset="0" style="stop-color:#09005D"/>
					<stop  offset="1" style="stop-color:#1A0F91"/>
				</linearGradient>
				<path class="st43" d="M1288.9,3215.1c-0.2-0.4-0.4-0.8-0.6-1.2c-14.1-19.7-49.9-58.8-120.7-75.8l-34-1.1c0,0-15.1,26.3-15.4,75
					c7.8,3.2,22.8,6.6,51.8,7.4C1214.8,3220.7,1268,3216.8,1288.9,3215.1z"/>
				
					<linearGradient id="SVGID_38_" gradientUnits="userSpaceOnUse" x1="-1158.2068" y1="2928.4578" x2="-1180.8619" y2="3126.1768" gradientTransform="matrix(0.998 -6.290000e-02 6.290000e-02 0.998 2123.7034 65.7657)">
					<stop  offset="0" style="stop-color:#FEBBBA"/>
					<stop  offset="1" style="stop-color:#FF928E"/>
				</linearGradient>
				<path class="st44" d="M1125.8,3087.2c0.5,2.5,7.6,40.6,10.3,55.4c0.7,3.5,3.4,6.1,6.6,6.3c5.8,0.3,15.2,0.4,23.3-1.8
					c4.4-1.2,7.3-5.6,7-10.5l-3.8-60.3L1125.8,3087.2z"/>
				
					<linearGradient id="SVGID_39_" gradientUnits="userSpaceOnUse" x1="-1281.6914" y1="3226.8584" x2="-1047.1964" y2="2108.7139" gradientTransform="matrix(-1 0 0 1 -160.9626 0)">
					<stop  offset="0" style="stop-color:#09005D"/>
					<stop  offset="1" style="stop-color:#1A0F91"/>
				</linearGradient>
				<path class="st45" d="M1100,2383.4c0,0,46.7,321.1,80.5,703.2c0.6,7.1-5,13.3-12,14.8c-10.3,2.2-25.4,4.7-38,4.4
					c-6.7-0.2-12.3-5.2-13.4-11.8c-11.5-67.4-93.5-428.9-115-508.5c0,0-24.7,338-16.8,513.4c0.2,4.4-3,8.1-7.3,8.6
					c-6.6,0.8-17.1,1.3-30.5-0.1c-5.1-0.5-9.2-4.4-9.9-9.4c-8.2-57-55.3-396.4-53.3-640.9c0.1-13.8,16.2-127.1,16.2-127.1
					L1100,2383.4z"/>
			</g>
			<linearGradient id="SVGID_40_" gradientUnits="userSpaceOnUse" x1="1360.2175" y1="1699.0657" x2="842.0858" y2="2270.6819">
				<stop  offset="0" style="stop-color:#4042E2"/>
				<stop  offset="1" style="stop-color:#4F52FF"/>
			</linearGradient>
			<path class="st46" d="M1118.1,1843.4l6.3,168c17.8,6.1,34.7,10.9,50.8,14.4c10.1-32.4,32.3-72.3,50.4-101.9
				C1158.9,1900.4,1118.1,1843.4,1118.1,1843.4z"/>
			<linearGradient id="SVGID_41_" gradientUnits="userSpaceOnUse" x1="1259.4879" y1="1730.8054" x2="504.2102" y2="3117.0728">
				<stop  offset="0" style="stop-color:#4042E2"/>
				<stop  offset="1" style="stop-color:#4F52FF"/>
			</linearGradient>
			<path class="st47" d="M893.4,2401.9c-4.8-1.7-8.2-6.1-8.7-11.1c-6.2-60.3-36.3-434.1,153.6-587.9c0,0,10.9-28.5,100.4,41.6
				c89.5,70.1,41.6,143.5,20.2,244.8c-25.9,122.6-71.5,222.7-51.3,298.2c1.4,5.2-1.3,10.7-6.4,12.5
				C1031.7,2425.6,962.4,2426.4,893.4,2401.9z"/>
			
				<linearGradient id="SVGID_42_" gradientUnits="userSpaceOnUse" x1="-1359.6549" y1="1887.9598" x2="-1307.0386" y2="1744.2769" gradientTransform="matrix(1 0 0 1 2420.5969 0)">
				<stop  offset="0" style="stop-color:#FEBBBA"/>
				<stop  offset="1" style="stop-color:#FF928E"/>
			</linearGradient>
			<path class="st48" d="M1112.5,1690.9c-0.1,5.3-75.9,113.1-75.9,113.1s13.6,26.8,78.6,48.6l56.1-115.4L1112.5,1690.9z"/>
			<linearGradient id="SVGID_43_" gradientUnits="userSpaceOnUse" x1="1106.4756" y1="1424.8339" x2="1082.0304" y2="1611.5056">
				<stop  offset="0" style="stop-color:#4042E2"/>
				<stop  offset="1" style="stop-color:#4F52FF"/>
			</linearGradient>
			<path class="st49" d="M1074.9,2059.6c-0.5,0-1-0.1-1.4-0.4c-60.6-40.9-89.1-107-89.4-107.7c-0.5-1.3,0.1-2.7,1.3-3.2
				c1.3-0.5,2.7,0,3.2,1.3c0.3,0.6,28.2,65.4,87.6,105.5c1.1,0.8,1.4,2.3,0.7,3.4C1076.5,2059.2,1075.7,2059.6,1074.9,2059.6z"/>
			<linearGradient id="SVGID_44_" gradientUnits="userSpaceOnUse" x1="1149.2323" y1="1430.4329" x2="1124.7871" y2="1617.1042">
				<stop  offset="0" style="stop-color:#4042E2"/>
				<stop  offset="1" style="stop-color:#4F52FF"/>
			</linearGradient>
			<path class="st50" d="M1165.2,1968c-0.8,0-1.6-0.4-2.1-1.1c-0.2-0.3-18.7-29.1-54-92.2c-10.8-19.4-25.1-31.7-42.4-36.5
				c-28.6-8-56.1,7.3-56.4,7.5c-1.2,0.7-2.7,0.3-3.4-0.9c-0.7-1.2-0.3-2.7,0.9-3.4c1.2-0.7,29.5-16.5,60.1-8
				c18.6,5.2,33.9,18.3,45.4,38.9c35.2,63,53.6,91.7,53.8,92c0.7,1.1,0.4,2.7-0.7,3.4C1166.1,1967.8,1165.6,1968,1165.2,1968z"/>
			<g>
				
					<linearGradient id="SVGID_45_" gradientUnits="userSpaceOnUse" x1="-1230.3292" y1="1672.4312" x2="-1543.828" y2="1922.1201" gradientTransform="matrix(1 0 0 1 2420.5969 0)">
					<stop  offset="0" style="stop-color:#FEBBBA"/>
					<stop  offset="1" style="stop-color:#FF928E"/>
				</linearGradient>
				<path class="st51" d="M1172.2,1629.2c0,0,27,62,28.8,94.5c1.8,32.5,8.8,53.7-28.8,60.2c-37.6,6.6-69.3-12.2-86.5-44.6
					c0,0-26.9-49.9-20.9-70.4C1070.9,1648.5,1172.2,1629.2,1172.2,1629.2z"/>
				
					<linearGradient id="SVGID_46_" gradientUnits="userSpaceOnUse" x1="-1351.3553" y1="1590.2894" x2="-1207.6652" y2="1775.2904" gradientTransform="matrix(1 0 0 1 2420.5969 0)">
					<stop  offset="0" style="stop-color:#09005D"/>
					<stop  offset="1" style="stop-color:#1A0F91"/>
				</linearGradient>
				<path class="st52" d="M1098.6,1716l2.1-0.9c2.7-1.2,3.9-4.4,2.5-7.1c-5.3-10.3-15.6-33.7-2.3-39.2c17.2-7.1,85.4-21,100.1-45.2
					c14.1-23.3,1.6-53.3-17.2-61.8c-1.3-0.6-2.7-0.1-3.4,1.1l-1.6,3c-1.1,2-4.1,1.7-4.7-0.5l0,0c-0.6-2.1-3.4-2.5-4.6-0.7
					c-4.5,7.2-16.7,19-49.4,25c-46.4,8.6-77.1,27.4-77.9,59.4c0,2-2.2,3.2-4,2.1c-3.4-2.1-8.9-3.1-16.2,3.1
					c-12.7,10.7-7.5,38.5,20.4,61.4c1.3,1.1,1.3,3.2-0.1,4.1c-5.1,3.3-12.6,11.1,7,21.6c20.2,10.8,35.4,9.9,41.2,9
					c1.4-0.2,2.4-1.6,2.1-3.1l-6.2-28.2c-0.4-1.6,0.9-3.1,2.5-3.1H1098.6z"/>
				
					<linearGradient id="SVGID_47_" gradientUnits="userSpaceOnUse" x1="-1261.8846" y1="1658.7487" x2="-1416.1669" y2="1776.7981" gradientTransform="matrix(1 0 0 1 2420.5969 0)">
					<stop  offset="0" style="stop-color:#FEBBBA"/>
					<stop  offset="1" style="stop-color:#FF928E"/>
				</linearGradient>
				<path class="st53" d="M1099.7,1722c0,0-10.3-39.6-28.1-28.5c-17.8,11.1,9.2,44.4,23.5,45.9L1099.7,1722z"/>
			</g>
			
				<linearGradient id="SVGID_48_" gradientUnits="userSpaceOnUse" x1="-1684.828" y1="1736.7418" x2="-1358.1681" y2="2018.915" gradientTransform="matrix(-1 0 0 1 -160.9626 0)">
				<stop  offset="0" style="stop-color:#FEBBBA"/>
				<stop  offset="1" style="stop-color:#FF928E"/>
			</linearGradient>
			<path class="st54" d="M1449.2,1830.8c0,0-13.5-24-12.7-35.6c0.9-11.7-6.4-28.8,1.3-27.5c7.7,1.3,9.3,0.2,11.4,14.2
				C1451.4,1795.9,1475.8,1856.9,1449.2,1830.8z"/>
			
				<linearGradient id="SVGID_49_" gradientUnits="userSpaceOnUse" x1="-1691.64" y1="1763.0476" x2="-1373.6653" y2="2037.7185" gradientTransform="matrix(-1 0 0 1 -160.9626 0)">
				<stop  offset="0" style="stop-color:#FEBBBA"/>
				<stop  offset="1" style="stop-color:#FF928E"/>
			</linearGradient>
			<path class="st55" d="M1451.7,1792.7l-0.3,47.9c-91.6,98.9-165.7,104.7-225.8,83.4c-18.2,29.6-40.4,69.4-50.4,101.9
				c244.5,53.9,302.1-170.9,302.1-170.9c33.1-13.7,39.8-21.7,38.4-30.7L1451.7,1792.7z"/>
			
				<linearGradient id="SVGID_50_" gradientUnits="userSpaceOnUse" x1="-1696.921" y1="1750.7412" x2="-1370.262" y2="2032.9138" gradientTransform="matrix(-1 0 0 1 -160.9626 0)">
				<stop  offset="0" style="stop-color:#FEBBBA"/>
				<stop  offset="1" style="stop-color:#FF928E"/>
			</linearGradient>
			<path class="st56" d="M1522.2,1745.1c-7.8-3.2-23.1-32.3-26-22.7s1.2,22.7,0,26.8c-1.2,4.1-20.3,51-16.5,61.4
				c2.7,7.5,17.9,6.4,20.2,18.7c0.8,4.1,4,7,7.8,7c3.8,0,7.1-2.9,7.8-7C1515.8,1827.7,1530,1748.3,1522.2,1745.1z"/>
			<g>
				
					<linearGradient id="SVGID_51_" gradientUnits="userSpaceOnUse" x1="527.4989" y1="1846.2122" x2="-61.1504" y2="3081.0952" gradientTransform="matrix(0.4597 -0.8881 0.8881 0.4597 -758.4859 793.5534)">
					<stop  offset="0" style="stop-color:#E1473D"/>
					<stop  offset="1" style="stop-color:#E9605A"/>
				</linearGradient>
				<path class="st57" d="M1272.6,1645.3c-61.7,122.1-12.8,271.2,109.3,332.9c99.3,50.2,216.3,27.2,289.8-48.7l424.3,214.5
					c7,3.6,15.4,3.3,22.2-0.8l41.5-24.7c0.7-0.4,1.4-0.9,2-1.4c0.2-0.1,0.4-0.3,0.5-0.4c0.5-0.4,0.9-0.8,1.4-1.2
					c0.2-0.1,0.3-0.3,0.5-0.4c0.6-0.5,1.1-1.1,1.6-1.7c0,0,0,0,0,0c5.2-6.3,6.8-15.2,3.6-23.2l-33.7-84.5c-2.1-5.2-6-9.5-11-12
					l-42.5-21.5l-11.2,22.2l-36.5-18.5l11.2-22.2l-34.2-17.3l-10.3,20.5l-44.4-22.4l10.3-20.5l-16.5-8.4l-5.3,10.5l-37.2-18.8
					l5.3-10.5l-28.9-14.6l-11.2,22.2l-20.7-10.4l11.2-22.2l-17.9-9.1l-11.2,22.2l-35.8-18.1l11.2-22.2l-50.4-25.5l0,0l-21.6-10.9
					c17.6-104.2-33.3-212.1-132.6-262.3C1483.4,1474.3,1334.3,1523.2,1272.6,1645.3z M1417.1,1662.2c24.7,12.5,34.6,42.7,22.1,67.4
					c-12.5,24.7-42.7,34.6-67.4,22.1c-24.7-12.5-34.6-42.7-22.1-67.4C1362.2,1659.6,1392.4,1649.7,1417.1,1662.2z"/>
				
					<linearGradient id="SVGID_52_" gradientUnits="userSpaceOnUse" x1="4105.2314" y1="0.9878" x2="3760.2639" y2="687.3659" gradientTransform="matrix(0.9652 -0.2615 0.2615 0.9652 -1955.4407 2439.333)">
					<stop  offset="0" style="stop-color:#FE7062"/>
					<stop  offset="1" style="stop-color:#FF928E"/>
				</linearGradient>
				<path class="st58" d="M1616.5,1720.2l201.2,101.7l-11.2,22.2l35.8,18.1l11.2-22.2l17.9,9.1l-11.2,22.2l20.7,10.4l11.2-22.2
					l28.9,14.6l-5.3,10.5l37.2,18.8l5.3-10.5l16.5,8.4l-10.3,20.5l44.4,22.4l10.3-20.5l34.2,17.3l-11.2,22.2l36.5,18.5l11.2-22.2
					l42.5,21.5c5,2.5,8.9,6.8,11,12l33.7,84.5c4.2,10.5,0.1,22.6-9.6,28.4l-41.5,24.7c-6.8,4-15.2,4.3-22.2,0.8l-512.2-259
					L1616.5,1720.2z"/>
				
					<linearGradient id="SVGID_53_" gradientUnits="userSpaceOnUse" x1="81.2225" y1="2178.4968" x2="590.6898" y2="3373.429" gradientTransform="matrix(0.4597 -0.8881 0.8881 0.4597 -758.4859 793.5534)">
					<stop  offset="0" style="stop-color:#FF9085"/>
					<stop  offset="1" style="stop-color:#FB6FBB"/>
				</linearGradient>
				<path class="st59" d="M1389.5,1965.5c122.1,61.7,271.2,12.8,332.9-109.3c61.7-122.1,12.8-271.2-109.3-332.9
					c-122.1-61.7-271.2-12.8-332.9,109.3C1218.5,1754.7,1267.4,1903.8,1389.5,1965.5z M1379.5,1739c-24.7-12.5-34.6-42.7-22.1-67.4
					c12.5-24.7,42.7-34.6,67.4-22.1c24.7,12.5,34.6,42.7,22.1,67.4C1434.4,1741.6,1404.2,1751.5,1379.5,1739z"/>
				<linearGradient id="SVGID_54_" gradientUnits="userSpaceOnUse" x1="1802.6949" y1="1673.6989" x2="2116.0364" y2="877.0122">
					<stop  offset="0" style="stop-color:#FE7062"/>
					<stop  offset="1" style="stop-color:#FF928E"/>
				</linearGradient>
				<path class="st60" d="M1679.4,1916.8l424.3,214.5c7,3.6,15.4,3.3,22.2-0.8l41.5-24.7c6.3-3.7,10.1-10,11-16.8
					c-38.7-41.9-406.3-202.4-420-235.5c-4.9-11.8-5.7-29.6,8.9-57.2l-21.6-10.9c17.6-104.2-33.3-212.1-132.6-262.3
					c-122.1-61.7-271.2-12.8-332.9,109.3c-61.7,122.1-12.8,271.2,109.3,332.9C1488.8,2015.7,1605.9,1992.8,1679.4,1916.8z
					 M1424.8,1649.5c24.7,12.5,34.6,42.7,22.1,67.4c-12.5,24.7-42.7,34.6-67.4,22.1c-24.7-12.5-34.6-42.7-22.1-67.4
					C1369.9,1646.9,1400,1637,1424.8,1649.5z"/>
				<linearGradient id="SVGID_55_" gradientUnits="userSpaceOnUse" x1="1975.2948" y1="826.0914" x2="1921.96" y2="929.4275">
					<stop  offset="0" style="stop-color:#FE7062"/>
					<stop  offset="1" style="stop-color:#FF928E"/>
				</linearGradient>
				<path class="st61" d="M1411.5,1922.1c98.2,49.6,218,10.3,267.6-87.9c49.6-98.2,10.3-218-87.9-267.6
					c-98.2-49.6-218-10.3-267.6,87.9C1274,1752.7,1313.3,1872.5,1411.5,1922.1z M1379.5,1739c-24.7-12.5-34.6-42.7-22.1-67.4
					c12.5-24.7,42.7-34.6,67.4-22.1c24.7,12.5,34.6,42.7,22.1,67.4C1434.4,1741.6,1404.2,1751.5,1379.5,1739z"/>
			</g>
			
				<linearGradient id="SVGID_56_" gradientUnits="userSpaceOnUse" x1="-820.4249" y1="4045.7346" x2="-1214.6862" y2="4730.7979" gradientTransform="matrix(0.9478 -0.3187 0.3187 0.9478 817.2306 -2113.7644)">
				<stop  offset="0" style="stop-color:#FEBBBA"/>
				<stop  offset="1" style="stop-color:#FF928E"/>
			</linearGradient>
			<path class="st62" d="M1074.9,2059.6c0,0,233.3,78.1,363.9-21.3c8.1-6.2,18.3-8.9,28.4-7.2l49.9,8.1
				c20.9,3.4,40.9-10.2,45.4-30.9c2.6-11.8,3.8-24.7,1.2-35.9l-94.1-5.7l2.7-12.2c0,0-41.6,10.2-42.4,42.7c0,0-97.6,63.9-275.6-35.3
				C1154.1,1962,1084.8,2016.3,1074.9,2059.6z"/>
		</g>
		<g>
			<g>
				<g class="st63">
					<path class="st32" d="M2877.2,889.7c-5.4-0.2-9.7-4.8-9.4-10.2c0.4-10.6,0.4-21.3-0.1-31.9c-0.2-5.4,3.9-9.9,9.2-10.3
						c0.1,0,0.1,0,0.2,0c5.4-0.2,10,4,10.3,9.4c0.5,11.2,0.5,22.5,0.1,33.6c-0.2,5.1-4.2,9.1-9.2,9.4
						C2877.9,889.7,2877.6,889.7,2877.2,889.7z M2861.9,796c-1.9-10.4-4.3-20.9-7.1-31.1c-1.4-5.2,1.7-10.7,6.9-12.1
						c5.3-1.4,10.7,1.7,12.1,6.9c2.9,10.7,5.4,21.7,7.4,32.7c1,5.3-2.6,10.5-7.9,11.5c-0.4,0.1-0.8,0.1-1.2,0.1
						C2867.3,804.4,2862.8,801,2861.9,796z M2837.8,716.1c-4.2-9.7-8.8-19.4-13.8-28.7c-2.6-4.8-0.8-10.8,4-13.3
						c4.8-2.6,10.8-0.8,13.3,4c5.3,9.8,10.2,20,14.6,30.3c2.1,5-0.2,10.8-5.2,12.9c-1.1,0.5-2.2,0.7-3.3,0.8
						C2843.4,722.3,2839.5,720,2837.8,716.1z M2796.4,643.5c-6.3-8.6-12.9-16.9-19.9-24.9c-3.6-4.1-3.1-10.3,1-13.9
						c4.1-3.6,10.3-3.1,13.9,1c7.3,8.4,14.4,17.2,21,26.2c3.2,4.4,2.2,10.6-2.1,13.8c-1.6,1.1-3.4,1.8-5.2,1.9
						C2801.7,647.7,2798.4,646.3,2796.4,643.5z M2739.8,581.9c-8-6.9-16.4-13.6-24.9-19.9c-4.4-3.2-5.3-9.4-2.1-13.8
						c3.2-4.4,9.4-5.3,13.8-2.1c9,6.6,17.8,13.6,26.2,20.9c4.1,3.6,4.5,9.8,1,13.9c-1.8,2.1-4.3,3.2-6.8,3.4
						C2744.4,584.5,2741.9,583.7,2739.8,581.9z M2671.1,534.4c-9.3-5-19-9.7-28.7-13.9c-5-2.2-7.3-8-5.1-12.9
						c2.2-5,7.9-7.3,12.9-5.1c10.2,4.4,20.4,9.3,30.2,14.6c4.8,2.6,6.6,8.5,4,13.3c-1.7,3.1-4.8,5-8.1,5.2
						C2674.6,535.7,2672.8,535.3,2671.1,534.4z M2305.5,529.8c-2.6-4.8-0.7-10.8,4.1-13.3c9.8-5.2,20-10.1,30.3-14.5
						c5-2.1,10.8,0.2,12.9,5.2c2.1,5-0.2,10.8-5.2,12.9c-9.8,4.2-19.4,8.8-28.8,13.8c-1.3,0.7-2.6,1.1-4,1.1
						C2311.1,535.3,2307.4,533.4,2305.5,529.8z M2593.5,503.4c-10.2-2.8-20.7-5.2-31.1-7.1c-5.3-1-8.9-6.1-7.9-11.5
						c1-5.3,6.1-8.9,11.5-7.9c11,2,22,4.6,32.7,7.5c5.2,1.4,8.3,6.9,6.9,12.1c-1.1,4.2-4.8,7-8.9,7.2
						C2595.7,503.8,2594.6,503.7,2593.5,503.4z M2384.4,496.2c-1.4-5.2,1.7-10.7,6.9-12.1c10.8-2.9,21.8-5.4,32.8-7.4
						c5.4-1,10.5,2.6,11.4,7.9c1,5.3-2.6,10.5-7.9,11.4c-10.4,1.9-20.9,4.2-31.1,7c-0.7,0.2-1.3,0.3-2,0.3
						C2390,503.8,2385.7,500.8,2384.4,496.2z M2511,490.4c-10.6-0.5-21.3-0.5-31.9,0c-5.4,0.2-10-4-10.3-9.4
						c-0.2-5.4,3.9-9.9,9.2-10.2c0.1,0,0.1,0,0.2,0c11.1-0.5,22.4-0.5,33.6,0c5.4,0.2,9.6,4.8,9.4,10.3c-0.2,5.1-4.2,9.1-9.2,9.4
						C2511.7,490.4,2511.4,490.4,2511,490.4z"/>
					<path class="st32" d="M2257,573c1.9-0.1,3.9-0.8,5.5-2.1c4-3.2,8.1-6.3,12.2-9.3c4.4-3.2,5.4-9.4,2.1-13.8
						c-3.2-4.4-9.4-5.4-13.8-2.1c-4.3,3.2-8.7,6.5-12.8,9.8c-4.3,3.4-5,9.6-1.6,13.8C2250.7,571.9,2253.9,573.2,2257,573z"/>
				</g>
				<g class="st63">
					<path class="st32" d="M2113.5,836.6c4.7-0.3,8.7-4,9.2-8.9c0.5-5.1,1.1-10.2,1.8-15.2c0.7-5.4-3-10.4-8.4-11.1
						c-5.4-0.7-10.4,3-11.1,8.4c-0.7,5.3-1.4,10.7-1.9,16c-0.5,5.4,3.4,10.2,8.9,10.7C2112.4,836.6,2113,836.6,2113.5,836.6z"/>
					<path class="st32" d="M2499.7,1256.9c-5.4,0.1-9.9-4.3-10-9.7c-0.1-5.4,4.3-9.9,9.7-10c10.4-0.1,20.9-0.7,31.3-1.8
						c5.4-0.5,10.2,3.4,10.8,8.8s-3.4,10.2-8.8,10.8c-4.5,0.4-9.1,0.8-13.6,1.1C2512.6,1256.5,2506.1,1256.8,2499.7,1256.9z
						 M2573.7,1238.9c-1.3-5.3,2-10.6,7.3-11.8c10.2-2.4,20.3-5.3,30.2-8.5c5.2-1.7,10.7,1.1,12.4,6.3c1.7,5.2-1.1,10.7-6.3,12.4
						c-10.4,3.4-21.1,6.4-31.8,9c-0.6,0.1-1.1,0.2-1.7,0.2C2579.2,1246.8,2574.9,1243.7,2573.7,1238.9z M2446.1,1254
						c-10.9-1.3-21.8-3.2-32.6-5.4c-5.3-1.1-8.7-6.3-7.6-11.7c1.1-5.3,6.3-8.7,11.7-7.6c10.2,2.1,20.6,3.9,30.9,5.2
						c5.4,0.7,9.2,5.6,8.6,11c-0.6,4.8-4.5,8.3-9.1,8.6C2447.3,1254.1,2446.7,1254.1,2446.1,1254z M2654,1212.6
						c-2.4-4.9-0.4-10.8,4.5-13.2c9.4-4.6,18.6-9.6,27.6-14.9c4.7-2.8,10.7-1.3,13.5,3.4c2.8,4.7,1.3,10.7-3.4,13.5
						c-9.4,5.6-19.2,10.9-29.1,15.7c-1.2,0.6-2.4,0.9-3.7,1C2659.6,1218.3,2655.8,1216.3,2654,1212.6z M2361.9,1233.9
						c-10.3-3.7-20.6-7.9-30.6-12.5c-4.9-2.3-7.1-8.1-4.9-13c2.3-4.9,8.1-7.1,13-4.9c9.5,4.3,19.3,8.3,29,11.8
						c5.1,1.8,7.8,7.5,5.9,12.6c-1.4,3.8-4.8,6.3-8.6,6.5C2364.6,1234.6,2363.2,1234.4,2361.9,1233.9z M2284.2,1195.9
						c-9.3-5.9-18.4-12.2-27.1-18.8c-4.3-3.3-5.2-9.5-1.9-13.8c3.3-4.3,9.5-5.2,13.8-1.9c8.3,6.3,17,12.3,25.8,17.9
						c4.6,2.9,6,9,3,13.6c-1.8,2.8-4.7,4.4-7.7,4.6C2288.1,1197.6,2286,1197.1,2284.2,1195.9z M2216.6,1141.9
						c-7.8-7.8-15.3-15.9-22.4-24.3c-3.5-4.2-3-10.4,1.1-13.9c4.2-3.5,10.4-3,13.9,1.1c6.7,7.9,13.9,15.7,21.3,23.1
						c3.8,3.8,3.9,10.1,0,13.9c-1.8,1.8-4,2.7-6.3,2.9C2221.5,1144.9,2218.7,1144,2216.6,1141.9z M2162.4,1074.4
						c-5.9-9.3-11.4-18.9-16.5-28.6c-2.5-4.8-0.7-10.8,4.2-13.3c4.8-2.5,10.8-0.6,13.3,4.2c4.8,9.2,10.1,18.4,15.7,27.2
						c2.9,4.6,1.6,10.7-3,13.6c-1.5,0.9-3,1.4-4.6,1.5C2167.9,1079.1,2164.4,1077.5,2162.4,1074.4z M2124.4,996.6
						c-3.7-10.3-7-20.9-9.8-31.5c-1.4-5.3,1.7-10.6,7-12c5.2-1.4,10.6,1.7,12,7c2.7,10.1,5.8,20.2,9.3,30c1.8,5.1-0.8,10.8-6,12.6
						c-0.9,0.3-1.8,0.5-2.7,0.6C2130,1003.3,2125.9,1000.8,2124.4,996.6z M2104.3,912.4c-1-8-1.8-16.1-2.3-24.2
						c-0.2-2.9-0.3-5.8-0.5-8.7c-0.2-5.4,3.9-10.1,9.4-10.2c5.4-0.2,10,4,10.2,9.4c0.1,2.8,0.3,5.5,0.4,8.3c0.5,7.6,1.2,15.4,2.2,23
						c0.7,5.4-3.2,10.3-8.5,11c-0.2,0-0.4,0-0.6,0.1C2109.6,921.3,2105,917.6,2104.3,912.4z"/>
					<path class="st32" d="M2734.9,1172.7c2-0.1,3.9-0.8,5.5-2.1c4.2-3.3,8.3-6.8,12.4-10.4c4.1-3.6,4.5-9.8,0.9-13.9
						c-3.6-4.1-9.8-4.5-13.9-0.9c-3.9,3.4-7.8,6.7-11.8,9.8c-4.2,3.4-4.9,9.6-1.5,13.8C2728.7,1171.7,2731.8,1172.9,2734.9,1172.7z"
						/>
				</g>
				<g>
					<path class="st32" d="M2753.5,1005c1.1-1.6,1.1-3.7,0-5.3l-32.4-45.7c10-24.2,16.2-50.1,17.9-77l49.2-26.7
						c1.7-0.9,2.7-2.9,2.3-4.8l-11-66.3c-0.3-1.9-1.8-3.5-3.8-3.8l-55.2-9.3c-10.3-24.8-24.6-47.4-41.8-67.1l16-53.7
						c0.6-1.9-0.1-3.9-1.7-5.1l-54.6-39.1c-1.6-1.1-3.7-1.1-5.3,0l-45.7,32.4c-24.2-10-50.1-16.2-77-17.9l-26.7-49.2
						c-0.9-1.7-2.9-2.7-4.8-2.3l-66.3,11c-1.9,0.3-3.5,1.8-3.8,3.8l-9.3,55.2c-24.8,10.3-47.4,24.6-67.1,41.8l-53.7-16
						c-1.9-0.6-3.9,0.1-5.1,1.7l-39.1,54.6c-1.1,1.6-1.1,3.7,0,5.3l32.4,45.7c-10,24.2-16.2,50.1-17.9,77L2200,871
						c-1.7,0.9-2.7,2.9-2.3,4.8l11,66.3c0.3,1.9,1.8,3.5,3.8,3.8l55.2,9.3c10.3,24.8,24.6,47.4,41.8,67.1l-16,53.7
						c-0.6,1.9,0.1,3.9,1.7,5.1l54.6,39.1c1.6,1.1,3.7,1.1,5.3,0l45.7-32.4c24.2,10,50.1,16.2,77,17.9l26.7,49.2
						c0.9,1.7,2.9,2.7,4.8,2.3l66.3-11c1.9-0.3,3.5-1.8,3.8-3.8l9.3-55.2c24.8-10.3,47.4-24.6,67.1-41.8l53.7,16
						c1.9,0.6,3.9-0.1,5.1-1.7L2753.5,1005z"/>
					<g>
						<path class="st2" d="M2488.5,927.9c-37.1-3.1-64.8-35.8-61.7-72.9c1.5-18,9.9-34.3,23.7-45.9c13.8-11.7,31.2-17.3,49.2-15.8
							c37.1,3.1,64.8,35.8,61.7,72.9c-2.8,33.8-30.1,59.7-63,61.8C2495.1,928.2,2491.8,928.2,2488.5,927.9z M2460.6,821.1
							c-10.6,8.9-17,21.4-18.1,35.2c-2.4,28.4,18.9,53.5,47.3,55.9c28.5,2.4,53.5-18.9,55.9-47.3c2.4-28.4-18.9-53.5-47.3-55.9
							c-2.6-0.2-5.1-0.2-7.7-0.1C2479.7,809.7,2469.2,813.9,2460.6,821.1z"/>
					</g>
					<g>
						<path class="st2" d="M2503.2,1025.5c5.6-0.4,11.3-1,17-1.9l0,0c1.8-0.3,3.6-0.6,5.3-1c8.7-1.7,17.3-4.2,25.6-7.2
							c0.1,0,0.2-0.1,0.3-0.1c0.3-0.1,0.6-0.2,1-0.4c0.6-0.2,1.2-0.5,1.9-0.7c1.6-0.6,2.6-2.2,2.5-3.9c0-0.4-0.1-0.8-0.3-1.2
							c-0.8-2-3.1-3-5.1-2.2c-10.4,4.1-21.3,7.1-32.5,9c-55.3,9.2-108.7-11.7-143.7-50.6c-19.4-21.6-33.1-48.8-38.2-79.6
							c-0.9-5.4-1.5-10.8-1.9-16.2c-2.3-36.2,7.9-71.8,29.3-101.7c24.6-34.4,61.1-57.1,102.7-64c86.1-14.3,167.6,44.1,181.9,130.2
							c0.9,5.3,1.5,10.6,1.8,16c1.5,23.1-2.1,46.3-10.6,67.8c-0.2,0.6-0.3,1.1-0.3,1.7c0.1,1.5,1,2.8,2.5,3.4c2,0.8,4.3-0.2,5.1-2.2
							c8.9-22.6,12.7-47,11.2-71.2c-0.4-5.6-1-11.2-1.9-16.8c-15-90.3-100.7-151.6-191-136.6c-43.8,7.3-82.1,31.1-107.9,67.2
							c-22.5,31.4-33.1,68.8-30.7,106.8c0.4,5.6,1,11.3,1.9,17c7.3,43.8,31.1,82.1,67.2,107.9
							C2427.8,1017.2,2465.2,1027.9,2503.2,1025.5z"/>
					</g>
				</g>
			</g>
			<g>
				<g class="st63">
					<path class="st32" d="M3230,1127.3c2.6-0.2,4.9-2,5.5-4.7c1.1-5,2.1-10.2,3-15.3c0.5-3.3-1.7-6.4-5-7c-3.3-0.6-6.4,1.7-7,5
						c-0.8,4.9-1.7,9.8-2.8,14.6c-0.7,3.3,1.3,6.5,4.6,7.3C3228.9,1127.3,3229.5,1127.3,3230,1127.3z"/>
					<path class="st32" d="M3235.5,1080.9c-3.4-0.1-6-3-5.8-6.3c0.3-8.5,0.2-17.1-0.3-25.5c-0.1-1.8-0.2-3.6-0.4-5.4
						c-0.3-3.3,2.2-6.3,5.5-6.6c3.2-0.1,6.3,2.2,6.6,5.6c0.2,1.9,0.3,3.7,0.4,5.6c0.6,8.9,0.7,17.9,0.3,26.7
						c-0.1,3.1-2.6,5.6-5.7,5.8C3235.9,1080.9,3235.7,1080.9,3235.5,1080.9z M3224.4,1013.2c-2.1-10.1-4.9-20.1-8.2-29.8
						c-1.1-3.2,0.6-6.6,3.8-7.7c3.2-1.1,6.6,0.6,7.7,3.8c3.5,10.2,6.4,20.7,8.6,31.2c0.7,3.3-1.4,6.5-4.7,7.2
						c-0.3,0.1-0.6,0.1-0.9,0.1C3227.8,1018.2,3225.1,1016.2,3224.4,1013.2z M3204.5,954.9c-4.5-9.2-9.6-18.3-15.2-26.9
						c-1.8-2.8-1-6.6,1.8-8.4c2.8-1.8,6.6-1,8.4,1.8c5.9,9,11.3,18.5,16,28.2c1.5,3,0.2,6.7-2.8,8.1c-0.7,0.4-1.5,0.6-2.3,0.6
						C3207.9,958.4,3205.6,957.1,3204.5,954.9z M3170.8,903.2c-6.6-7.8-13.8-15.4-21.3-22.3c-2.5-2.3-2.6-6.1-0.3-8.6
						c2.3-2.5,6.1-2.6,8.6-0.3c7.9,7.3,15.4,15.2,22.4,23.4c2.2,2.6,1.8,6.4-0.7,8.6c-1,0.9-2.3,1.3-3.5,1.4
						C3174,905.5,3172.1,904.8,3170.8,903.2z M3125.5,861.4c-8.3-6-17.1-11.5-26.1-16.5c-2.9-1.6-4-5.3-2.4-8.3
						c1.6-2.9,5.3-4,8.3-2.4c9.4,5.2,18.6,11,27.4,17.2c2.7,2,3.3,5.8,1.4,8.5c-1.1,1.5-2.8,2.4-4.6,2.5
						C3128.1,862.6,3126.7,862.2,3125.5,861.4z M3071.5,831.8c-9.5-3.8-19.4-7-29.3-9.6c-3.2-0.8-5.2-4.2-4.4-7.4
						c0.8-3.2,4.2-5.2,7.4-4.4c10.4,2.7,20.7,6.1,30.8,10.1c3.1,1.2,4.6,4.8,3.4,7.9c-0.9,2.3-3,3.7-5.3,3.8
						C3073.3,832.3,3072.4,832.1,3071.5,831.8z M3011.9,816.3c-10.1-1.3-20.5-2-30.8-2.1c-3.4,0-6.1-2.8-6-6.1c0-3.4,2.8-6,6.1-6
						c10.8,0.1,21.7,0.8,32.3,2.2c3.3,0.4,5.7,3.5,5.2,6.8c-0.4,2.9-2.8,5.1-5.6,5.3C3012.7,816.4,3012.3,816.4,3011.9,816.3z
						 M2912.5,816.9c-0.8-3.3,1.2-6.6,4.5-7.3c9-2.2,18.3-3.9,27.6-5.2c1.4-0.2,2.8-0.4,4.2-0.5c3.3-0.5,6.4,2,6.7,5.3
						c0.4,3.3-2,6.4-5.3,6.7c-1.3,0.1-2.6,0.3-4,0.5c-8.9,1.2-17.8,2.8-26.4,4.9c-0.4,0.1-0.7,0.1-1.1,0.2
						C2915.9,821.7,2913.2,819.8,2912.5,816.9z"/>
				</g>
				<g class="st63">
					<path class="st32" d="M2992.3,1327c-10.6,0.5-21.3,0.4-31.8-0.3c-3.3-0.2-5.9-3.1-5.6-6.5c0.2-3.4,3.2-5.8,6.5-5.6
						c10,0.7,20.3,0.8,30.4,0.3c3.4-0.2,6.2,2.4,6.4,5.8C2998.2,1324,2995.7,1326.8,2992.3,1327
						C2992.4,1327,2992.3,1327,2992.3,1327z M3016.9,1318.6c-0.6-3.3,1.7-6.5,5-7c10-1.7,19.9-4,29.6-6.9c3.2-0.9,6.6,0.9,7.6,4.1
						c1,3.2-0.9,6.6-4.1,7.6c-10.1,3-20.6,5.5-31,7.3c-0.2,0-0.4,0.1-0.7,0.1C3020.2,1323.8,3017.5,1321.7,3016.9,1318.6z
						 M2928.9,1322.5c-10.4-2-20.8-4.7-30.8-8c-3.2-1-4.9-4.5-3.9-7.7c1-3.2,4.5-4.9,7.7-3.9c9.6,3.1,19.5,5.7,29.4,7.6
						c3.3,0.6,5.4,3.8,4.8,7.1c-0.5,2.8-2.9,4.7-5.6,4.9C2929.9,1322.7,2929.4,1322.6,2928.9,1322.5z M3076.9,1302.2
						c-1.3-3.1,0.1-6.7,3.1-8c9.3-4.1,18.3-8.7,27-13.9c2.9-1.7,6.6-0.8,8.3,2.1c1.7,2.9,0.8,6.6-2.1,8.3
						c-9.1,5.4-18.6,10.3-28.3,14.6c-0.7,0.3-1.4,0.5-2.1,0.5C3080.3,1305.9,3077.9,1304.6,3076.9,1302.2z M2868.5,1302.8
						c-9.6-4.5-19-9.6-28-15.2c-2.8-1.8-3.7-5.5-1.9-8.4c1.8-2.9,5.5-3.7,8.4-1.9c8.6,5.3,17.5,10.2,26.7,14.5c3,1.4,4.4,5,2.9,8.1
						c-1,2.1-3,3.4-5.1,3.5C2870.4,1303.5,2869.4,1303.3,2868.5,1302.8z M2814.5,1269.2c-8.3-6.7-16.2-13.9-23.5-21.4
						c-2.3-2.4-2.3-6.3,0.1-8.6c2.4-2.3,6.3-2.3,8.6,0.1c7,7.2,14.6,14.1,22.5,20.4c2.6,2.1,3,5.9,0.9,8.6c-1.1,1.4-2.7,2.1-4.4,2.3
						C2817.3,1270.7,2815.8,1270.2,2814.5,1269.2z M2770.2,1223.7c-6.4-8.4-12.4-17.3-17.7-26.5c-1.7-2.9-0.7-6.6,2.2-8.3
						c2.9-1.7,6.6-0.7,8.3,2.2c5.1,8.7,10.8,17.2,16.9,25.2c2,2.7,1.5,6.5-1.2,8.5c-1,0.8-2.1,1.2-3.3,1.2
						C2773.5,1226.2,2771.5,1225.3,2770.2,1223.7z"/>
					<path class="st32" d="M3136.5,1273.9c1.2-0.1,2.3-0.5,3.3-1.3c4.1-3.2,8.2-6.5,12-9.9c2.5-2.2,2.8-6.1,0.6-8.6
						c-2.2-2.5-6-2.8-8.6-0.6c-3.7,3.2-7.5,6.4-11.5,9.4c-2.7,2.1-3.1,5.9-1.1,8.5C3132.6,1273.2,3134.5,1274,3136.5,1273.9z"/>
				</g>
				<g>
					<path class="st32" d="M3152.6,1159.3c0.8-1.1,0.8-2.5,0-3.6l-21.7-30.6c6.7-16.2,10.8-33.5,12-51.5l32.9-17.8
						c1.2-0.6,1.8-1.9,1.6-3.2l-7.4-44.3c-0.2-1.3-1.2-2.3-2.5-2.5l-36.9-6.3c-6.9-16.6-16.4-31.7-28-44.9l10.7-35.9
						c0.4-1.3-0.1-2.6-1.2-3.4l-36.6-26.2c-1.1-0.8-2.5-0.8-3.6,0l-30.6,21.7c-16.2-6.7-33.5-10.8-51.5-12l-17.8-32.9
						c-0.6-1.2-1.9-1.8-3.2-1.6l-44.3,7.4c-1.3,0.2-2.3,1.2-2.5,2.5l-6.3,36.9c-16.6,6.9-31.7,16.4-44.9,28l-35.9-10.7
						c-1.3-0.4-2.6,0.1-3.4,1.2l-26.2,36.6c-0.8,1.1-0.8,2.5,0,3.6l21.7,30.6c-6.7,16.2-10.8,33.5-12,51.5l-32.9,17.8
						c-1.2,0.6-1.8,1.9-1.6,3.2l7.4,44.3c0.2,1.3,1.2,2.3,2.5,2.5l36.9,6.3c6.9,16.6,16.4,31.7,28,44.9l-10.7,35.9
						c-0.4,1.3,0.1,2.6,1.2,3.4l36.6,26.2c1.1,0.8,2.5,0.8,3.6,0l30.6-21.7c16.2,6.7,33.5,10.8,51.5,12l17.8,32.9
						c0.6,1.2,1.9,1.8,3.2,1.6l44.3-7.4c1.3-0.2,2.3-1.2,2.5-2.5l6.3-36.9c16.6-6.9,31.7-16.4,44.9-28l35.9,10.7
						c1.3,0.4,2.6-0.1,3.4-1.2L3152.6,1159.3z"/>
					<g>
						<path class="st2" d="M2975.2,1108.6c-12.2-1-23.4-6.7-31.3-16.1c-7.9-9.4-11.7-21.3-10.7-33.5c2.1-25.3,24.3-44.1,49.7-42
							c25.3,2.1,44.1,24.4,42,49.6c-1,12.2-6.7,23.4-16.1,31.3c-7.6,6.5-16.9,10.2-26.7,10.8
							C2979.8,1108.8,2977.5,1108.7,2975.2,1108.6z M2945.3,1059.9c-0.7,9,2.1,17.8,7.9,24.7c5.8,6.9,14,11.1,23,11.9l0,0
							c9,0.7,17.8-2.1,24.7-7.9c6.9-5.8,11.1-14,11.9-23c1.5-18.6-12.3-35-30.9-36.5c-1.7-0.1-3.3-0.2-5,0
							C2960.4,1030,2946.7,1043,2945.3,1059.9z"/>
					</g>
					<g>
						<path class="st2" d="M2985.5,1176.4c3.8-0.2,7.7-0.7,11.6-1.3c7.7-1.3,15.3-3.3,22.5-6.1c0.3-0.1,0.7-0.3,1-0.4
							c2.5-1,4-3.5,3.8-6c0-0.6-0.2-1.3-0.4-1.9c-1.2-3.1-4.8-4.6-7.9-3.4c-6.8,2.7-13.8,4.6-21,5.8l0,0c-0.4,0.1-0.8,0.1-1.2,0.2
							c-17,2.7-34.1,1-49.9-4.7c-8.6-3.1-16.8-7.3-24.5-12.7c-0.1,0-0.1-0.1-0.2-0.1c-0.2-0.1-0.4-0.3-0.6-0.4
							c-22.2-15.9-37-39.5-41.4-66.5c-0.6-3.5-1-7-1.2-10.5c-1.5-23.4,5.1-46.5,18.9-65.9c15.9-22.2,39.5-37,66.5-41.4
							c27-4.5,54.1,1.8,76.3,17.7c22.2,15.9,37,39.5,41.4,66.5c0.6,3.4,1,6.9,1.2,10.3c0.9,15-1.4,30-6.9,43.9
							c-0.3,0.9-0.5,1.7-0.4,2.6c0.1,2.3,1.6,4.4,3.8,5.3c3.1,1.2,6.7-0.3,7.9-3.4c6.2-15.6,8.8-32.4,7.7-49.1
							c-0.2-3.9-0.7-7.7-1.3-11.6c-5-30.2-21.5-56.6-46.4-74.4c-24.9-17.8-55.2-24.9-85.4-19.8c-30.2,5-56.6,21.5-74.4,46.4
							c-15.5,21.7-22.9,47.5-21.2,73.7c0.2,3.9,0.7,7.8,1.3,11.7C2875,1139.3,2927.6,1180.1,2985.5,1176.4z"/>
					</g>
				</g>
			</g>
		</g>
	</g>
</g>
</svg>
